<svg width="375" height="128" xmlns="http://www.w3.org/2000/svg" version="1.0" preserveAspectRatio="xMidYMid meet" zoomAndPan="magnify">
 <defs>
  <g id="svg_1"/>
 </defs>
 <g>
  <title>Layer 1</title>
  <g id="svg_31">
   <path id="svg_2" fill-rule="evenodd" d="m22.58976,42.23731c2.38282,-2.44532 5.09766,-4.91797 8.38672,-5.58204l28.46875,-5.55859c1.08985,-0.30469 2.22656,-0.41797 3.35156,-0.33203c0.9961,0.20703 1.94922,0.57031 2.83204,1.07031l18.85546,9.52344c0.58985,0.25391 1.12891,0.61328 1.59375,1.05859c0.48829,0.60547 0.83985,1.3125 1.03125,2.06641l7.64844,23.16406c0.78125,2.3711 -0.6875,4.85547 -2.10156,6.92188l-10.68359,15.6289c-0.48438,0.84766 -1.15625,1.57032 -1.96485,2.11719c-0.71094,0.34766 -1.48047,0.55859 -2.26953,0.625c-11.48047,1.69922 -23.00391,3.09375 -34.57422,4.18359c-1.4375,0.21875 -2.90625,0.17969 -4.33203,-0.11718c-1.20703,-0.39063 -2.34766,-0.96875 -3.37891,-1.70703c-12.01171,-7.64844 -24.68359,-16.16797 -30.26562,-29.32422c-0.52344,-1.27344 0.25391,-2.61328 1.01953,-3.73438c4.88281,-7.12109 10.36328,-13.8125 16.38281,-20.0039zm58.25,18.88281c-1.29297,6.4375 -0.01953,13.125 3.54297,18.63672c4.38672,-3.28907 4.9961,-9.73828 3.69531,-15.06641c-1.30078,-5.33203 -4.07812,-10.19922 -5.09765,-15.59375c-0.57422,-2.87891 -3.46875,-4.60156 -6.08203,-5.95312l-12.50782,-6.47657c-0.5625,-0.34375 -1.1914,-0.5625 -1.84765,-0.63672c-1.40235,0 -2.55078,1.1211 -3.41797,2.17969c-3.57813,4.14844 -7.58984,7.89844 -11.96875,11.19531c-0.78906,0.58594 -2.15625,1.04297 -2.55078,0.13672l12.45703,-13.02734c0.19922,-0.15625 0.32031,-0.39453 0.33203,-0.64844c-0.07812,-0.43359 -0.67578,-0.47265 -1.09766,-0.41015l-10.19921,1.51562c-4.52344,0.47266 -8.97266,1.5 -13.2461,3.0625c-9.54687,3.97656 -16,12.86328 -21.59765,21.55859l20.66796,-4.05468c2.55079,-0.51172 5.27735,-1.1211 6.94532,-3.09766c0.625,-0.74219 1.14843,-1.69531 2.09375,-1.95312c0.9414,-0.25391 2.03906,1.07421 1.27343,1.62109c-0.45703,0.42578 -0.71875,1.01953 -0.71875,1.64453c0,0.625 0.26172,1.21875 0.71875,1.64453c0.97657,0.79297 2.16407,1.28516 3.41797,1.41406l28.19922,5.66016c2.3711,0.48438 4.02735,-2.35937 4.44922,-4.74219c0.42188,-2.38281 0.76563,-5.27734 2.94531,-6.375c1.07032,2.39844 0.15235,5.10157 -0.37109,7.71485l-0.03516,0.05078zm-27.15625,13.47656l16.24219,-7.65234c-11.125,-1.16797 -22.125,-3.30078 -32.87891,-6.3711c-2.28906,-0.4414 -4.64843,-0.28906 -6.85937,0.44532l-15.82031,3.82421c-0.60938,0.0625 -1.16797,0.3711 -1.54297,0.85547c-0.19531,0.48828 -0.19531,1.03516 0,1.52735c1.74609,6.88672 7.85156,11.60156 13.5625,15.80859l12.50781,9.19141c0.22656,0.20703 0.51172,0.33203 0.81641,0.35937c0.49609,0 0.8164,-0.51172 1.03125,-0.95703c2.19531,-4.55078 3.19922,-9.90625 6.89843,-13.34766c1.81641,-1.52734 3.85938,-2.76562 6.05469,-3.67187l-0.01172,-0.01172zm0.77735,3.05859c-1.70313,0.85157 -3.27735,1.9375 -4.67969,3.22657c-2.74219,2.7539 -3.68359,6.7539 -4.52344,10.54297c-0.14062,0.625 -0.1914,1.42578 0.35547,1.73437c0.27734,0.11719 0.58594,0.14453 0.87891,0.08594l22.13281,-2.20313c4.5625,-0.44531 9.63672,-1.17578 12.48047,-4.76953c1.19922,-1.51562 1.82422,-3.82422 0.71484,-5.35547c-2.03515,-2.8789 -3.59375,-6.07031 -4.61719,-9.44531c-0.55859,-1.84766 -1.45312,-4.16797 -3.3789,-4.19531c-0.75781,0.05859 -1.48438,0.3125 -2.11328,0.74219l-17.25,9.63671zm0,0" fill="#e928a0"/>
   <g id="svg_3" fill="#e928a0">
    <g id="svg_4">
     <g id="svg_5">
      <path id="svg_6" d="m129.58605,83.25l-7.42187,-10.71875l-8.20313,0l0,10.71875l-8.90625,0l0,-38.5l16.67188,0c3.40625,0 6.36328,0.57031 8.875,1.70312c2.50781,1.13672 4.4414,2.75 5.79687,4.84375c1.36328,2.09375 2.04688,4.57032 2.04688,7.42188c0,2.86719 -0.6875,5.33594 -2.0625,7.40625c-1.375,2.0625 -3.32813,3.64844 -5.85938,4.75l8.64063,12.375l-9.57813,0zm-0.15625,-24.53125c0,-2.16406 -0.69922,-3.82031 -2.09375,-4.96875c-1.39844,-1.15625 -3.43359,-1.73438 -6.10937,-1.73438l-7.26563,0l0,13.42188l7.26563,0c2.67578,0 4.71093,-0.58594 6.10937,-1.76563c1.39453,-1.17578 2.09375,-2.82812 2.09375,-4.95312zm0,0"/>
     </g>
    </g>
   </g>
   <g id="svg_7" fill="#e928a0">
    <g id="svg_8">
     <g id="svg_9">
      <path id="svg_10" d="m164.1175,83.90625c-3.99219,0 -7.58985,-0.85938 -10.79688,-2.57813c-3.21094,-1.72656 -5.72656,-4.10156 -7.54687,-7.125c-1.8125,-3.01953 -2.71875,-6.42187 -2.71875,-10.20312c0,-3.78125 0.90625,-7.17969 2.71875,-10.20313c1.82031,-3.01953 4.33593,-5.39062 7.54687,-7.10937c3.20703,-1.72656 6.80469,-2.59375 10.79688,-2.59375c4,0 7.59375,0.86719 10.78125,2.59375c3.19531,1.71875 5.71093,4.08984 7.54687,7.10937c1.83203,3.02344 2.75,6.42188 2.75,10.20313c0,3.78125 -0.91797,7.18359 -2.75,10.20312c-1.83594,3.02344 -4.35156,5.39844 -7.54687,7.125c-3.1875,1.71875 -6.78125,2.57813 -10.78125,2.57813zm0,-7.59375c2.28125,0 4.33593,-0.51953 6.17187,-1.5625c1.83203,-1.03906 3.26953,-2.49219 4.3125,-4.35938c1.03906,-1.875 1.5625,-4.0039 1.5625,-6.39062c0,-2.38281 -0.52344,-4.50781 -1.5625,-6.375c-1.04297,-1.875 -2.48047,-3.33203 -4.3125,-4.375c-1.83594,-1.03906 -3.89062,-1.5625 -6.17187,-1.5625c-2.27344,0 -4.32422,0.52344 -6.15625,1.5625c-1.83594,1.04297 -3.27344,2.5 -4.3125,4.375c-1.04297,1.86719 -1.5625,3.99219 -1.5625,6.375c0,2.38672 0.51953,4.51562 1.5625,6.39062c1.03906,1.86719 2.47656,3.32032 4.3125,4.35938c1.83203,1.04297 3.88281,1.5625 6.15625,1.5625zm0,0"/>
     </g>
    </g>
   </g>
   <g id="svg_11" fill="#e928a0">
    <g id="svg_12">
     <g id="svg_13">
      <path id="svg_14" d="m204.54974,83.90625c-3.04297,0 -5.98437,-0.41406 -8.82812,-1.23438c-2.84375,-0.82031 -5.125,-1.89453 -6.84375,-3.21875l3.01562,-6.70312c1.65625,1.21094 3.61719,2.18359 5.89063,2.92187c2.26953,0.73047 4.53906,1.09375 6.8125,1.09375c2.53125,0 4.39843,-0.375 5.60937,-1.125c1.20703,-0.75781 1.8125,-1.75781 1.8125,-3c0,-0.91406 -0.35937,-1.67578 -1.07812,-2.28125c-0.71094,-0.61328 -1.625,-1.10156 -2.75,-1.46875c-1.11719,-0.36328 -2.625,-0.76562 -4.53125,-1.20312c-2.92969,-0.69531 -5.32813,-1.39453 -7.20313,-2.09375c-1.86719,-0.69531 -3.46875,-1.8125 -4.8125,-3.34375c-1.33594,-1.53906 -2,-3.59766 -2,-6.17188c0,-2.23828 0.60156,-4.26562 1.8125,-6.07812c1.20703,-1.8125 3.03125,-3.25 5.46875,-4.3125c2.4375,-1.0625 5.41406,-1.59375 8.9375,-1.59375c2.45703,0 4.85938,0.29297 7.20313,0.875c2.35156,0.58594 4.41015,1.42969 6.17187,2.53125l-2.75,6.76562c-3.5625,-2.01953 -7.12109,-3.03125 -10.67187,-3.03125c-2.5,0 -4.34375,0.40625 -5.53125,1.21875c-1.1875,0.80469 -1.78125,1.86719 -1.78125,3.1875c0,1.32422 0.6875,2.3086 2.0625,2.95313c1.375,0.63672 3.47265,1.26562 6.29687,1.89062c2.92578,0.69922 5.32031,1.39844 7.1875,2.09375c1.875,0.6875 3.47656,1.78907 4.8125,3.29688c1.34375,1.5 2.01563,3.53125 2.01563,6.09375c0,2.21094 -0.61719,4.21875 -1.84375,6.03125c-1.23047,1.8125 -3.07422,3.25 -5.53125,4.3125c-2.44922,1.0625 -5.4336,1.59375 -8.95313,1.59375zm0,0"/>
     </g>
    </g>
   </g>
   <g id="svg_15" fill="#e928a0">
    <g id="svg_16">
     <g id="svg_17">
      <path id="svg_18" d="m256.79346,76.09375l0,7.15625l-29.8125,0l0,-38.5l29.09375,0l0,7.15625l-20.23437,0l0,8.35937l17.875,0l0,6.92188l-17.875,0l0,8.90625l20.95312,0zm0,0"/>
     </g>
    </g>
   </g>
   <g id="svg_19" fill="#e928a0">
    <g id="svg_20">
     <g id="svg_21">
      <path id="svg_22" d="m271.86766,52.01562l-12.32813,0l0,-7.26562l33.54688,0l0,7.26562l-12.3125,0l0,31.23438l-8.90625,0l0,-31.23438zm0,0"/>
     </g>
    </g>
   </g>
   <g id="svg_23" fill="#e928a0">
    <g id="svg_24">
     <g id="svg_25">
      <path id="svg_26" d="m305.85518,52.01562l-12.32813,0l0,-7.26562l33.54688,0l0,7.26562l-12.3125,0l0,31.23438l-8.90625,0l0,-31.23438zm0,0"/>
     </g>
    </g>
   </g>
   <g id="svg_27" fill="#e928a0">
    <g id="svg_28">
     <g id="svg_29">
      <path id="svg_30" d="m357.2177,75l-17.875,0l-3.40625,8.25l-9.14063,0l17.17188,-38.5l8.79687,0l17.21875,38.5l-9.35937,0l-3.40625,-8.25zm-2.8125,-6.76563l-6.09375,-14.73437l-6.10938,14.73437l12.20313,0zm0,0"/>
     </g>
    </g>
   </g>
  </g>
 </g>
</svg>