<svg xmlns="http://www.w3.org/2000/svg" xmlns:xlink="http://www.w3.org/1999/xlink" width="500" zoomAndPan="magnify" viewBox="0 0 375 374.999991" height="500" preserveAspectRatio="xMidYMid meet" version="1.0"><defs><g/></defs><path fill="#e928a0" d="M 97.292969 74.875 C 105.136719 66.820312 114.074219 58.679688 124.902344 56.496094 L 218.597656 38.203125 C 222.183594 37.203125 225.917969 36.832031 229.632812 37.113281 C 232.902344 37.792969 236.042969 38.984375 238.945312 40.636719 L 301.003906 71.980469 C 302.945312 72.820312 304.722656 74 306.25 75.460938 C 307.855469 77.457031 309.015625 79.777344 309.648438 82.261719 L 334.824219 158.5 C 337.382812 166.304688 332.558594 174.484375 327.898438 181.285156 L 292.738281 232.726562 C 291.136719 235.507812 288.929688 237.886719 286.277344 239.691406 C 283.9375 240.835938 281.402344 241.53125 278.808594 241.746094 C 241.015625 247.339844 203.085938 251.929688 165.015625 255.507812 C 160.273438 256.230469 155.441406 256.101562 150.746094 255.132812 C 146.773438 253.839844 143.023438 251.941406 139.628906 249.507812 C 100.101562 224.332031 58.394531 196.304688 40.015625 153.003906 C 38.296875 148.808594 40.855469 144.402344 43.375 140.710938 C 59.441406 117.269531 77.480469 95.246094 97.292969 74.875 Z M 289.003906 137.015625 C 284.757812 158.203125 288.941406 180.210938 300.667969 198.359375 C 315.101562 187.535156 317.117188 166.304688 312.835938 148.765625 C 308.558594 131.226562 299.410156 115.199219 296.054688 97.449219 C 294.164062 87.964844 284.640625 82.300781 276.039062 77.855469 L 234.875 56.539062 C 233.023438 55.40625 230.949219 54.691406 228.792969 54.441406 C 224.175781 54.441406 220.398438 58.132812 217.546875 61.617188 C 205.765625 75.265625 192.558594 87.617188 178.148438 98.457031 C 175.546875 100.386719 171.054688 101.898438 169.753906 98.917969 L 210.75 56.035156 C 211.410156 55.515625 211.808594 54.734375 211.839844 53.894531 C 211.589844 52.46875 209.617188 52.34375 208.230469 52.550781 L 174.664062 57.546875 C 159.773438 59.089844 145.128906 62.472656 131.070312 67.617188 C 99.640625 80.707031 78.410156 109.953125 59.988281 138.570312 L 128.007812 125.226562 C 136.398438 123.546875 145.378906 121.535156 150.875 115.03125 C 152.929688 112.597656 154.648438 109.449219 157.753906 108.609375 C 160.859375 107.769531 164.46875 112.136719 161.949219 113.9375 C 160.445312 115.335938 159.589844 117.296875 159.589844 119.351562 C 159.589844 121.40625 160.445312 123.367188 161.949219 124.765625 C 165.167969 127.375 169.074219 128.992188 173.195312 129.421875 L 266.011719 148.050781 C 273.816406 149.644531 279.269531 140.289062 280.652344 132.441406 C 282.039062 124.597656 283.171875 115.070312 290.347656 111.464844 C 293.871094 119.351562 290.851562 128.246094 289.128906 136.847656 Z M 199.628906 181.367188 L 253.085938 156.191406 C 216.476562 152.347656 180.269531 145.328125 144.875 135.210938 C 137.347656 133.765625 129.574219 134.273438 122.300781 136.679688 L 70.226562 149.269531 C 68.222656 149.472656 66.390625 150.488281 65.152344 152.078125 C 64.515625 153.699219 64.515625 155.496094 65.152344 157.113281 C 70.898438 179.773438 90.996094 195.296875 109.796875 209.144531 L 150.957031 239.398438 C 151.703125 240.070312 152.644531 240.484375 153.644531 240.570312 C 155.28125 240.570312 156.328125 238.894531 157.042969 237.425781 C 164.257812 222.445312 167.574219 204.824219 179.742188 193.492188 C 185.726562 188.464844 192.445312 184.390625 199.671875 181.410156 Z M 202.191406 191.4375 C 196.589844 194.246094 191.410156 197.820312 186.789062 202.054688 C 177.769531 211.117188 174.664062 224.292969 171.894531 236.753906 C 171.433594 238.808594 171.265625 241.453125 173.070312 242.460938 C 173.984375 242.847656 174.992188 242.949219 175.964844 242.753906 L 248.808594 235.496094 C 263.828125 234.027344 280.527344 231.636719 289.886719 219.800781 C 293.828125 214.808594 295.886719 207.214844 292.234375 202.179688 C 285.535156 192.699219 280.40625 182.199219 277.046875 171.085938 C 275.199219 165.003906 272.261719 157.367188 265.925781 157.28125 C 263.429688 157.46875 261.027344 158.308594 258.960938 159.714844 Z M 202.191406 191.4375 " fill-opacity="1" fill-rule="evenodd"/><g fill="#e928a0" fill-opacity="1"><g transform="translate(21.257816, 321.04993)"><g><path d="M 35.96875 0 L 26.796875 -13.265625 L 16.65625 -13.265625 L 16.65625 0 L 5.640625 0 L 5.640625 -47.59375 L 26.25 -47.59375 C 30.46875 -47.59375 34.128906 -46.890625 37.234375 -45.484375 C 40.335938 -44.085938 42.726562 -42.09375 44.40625 -39.5 C 46.082031 -36.914062 46.921875 -33.859375 46.921875 -30.328125 C 46.921875 -26.796875 46.066406 -23.75 44.359375 -21.1875 C 42.660156 -18.625 40.25 -16.660156 37.125 -15.296875 L 47.796875 0 Z M 35.765625 -30.328125 C 35.765625 -33.003906 34.898438 -35.054688 33.171875 -36.484375 C 31.453125 -37.910156 28.941406 -38.625 25.640625 -38.625 L 16.65625 -38.625 L 16.65625 -22.03125 L 25.640625 -22.03125 C 28.941406 -22.03125 31.453125 -22.753906 33.171875 -24.203125 C 34.898438 -25.660156 35.765625 -27.703125 35.765625 -30.328125 Z M 35.765625 -30.328125 "/></g></g></g><g fill="#e928a0" fill-opacity="1"><g transform="translate(71.23209, 321.04993)"><g><path d="M 28.703125 0.8125 C 23.753906 0.8125 19.296875 -0.25 15.328125 -2.375 C 11.367188 -4.507812 8.265625 -7.445312 6.015625 -11.1875 C 3.773438 -14.925781 2.65625 -19.128906 2.65625 -23.796875 C 2.65625 -28.460938 3.773438 -32.664062 6.015625 -36.40625 C 8.265625 -40.15625 11.367188 -43.09375 15.328125 -45.21875 C 19.296875 -47.351562 23.753906 -48.421875 28.703125 -48.421875 C 33.640625 -48.421875 38.078125 -47.351562 42.015625 -45.21875 C 45.960938 -43.09375 49.066406 -40.15625 51.328125 -36.40625 C 53.597656 -32.664062 54.734375 -28.460938 54.734375 -23.796875 C 54.734375 -19.128906 53.597656 -14.925781 51.328125 -11.1875 C 49.066406 -7.445312 45.960938 -4.507812 42.015625 -2.375 C 38.078125 -0.25 33.640625 0.8125 28.703125 0.8125 Z M 28.703125 -8.5625 C 31.503906 -8.5625 34.039062 -9.207031 36.3125 -10.5 C 38.582031 -11.789062 40.363281 -13.59375 41.65625 -15.90625 C 42.945312 -18.21875 43.59375 -20.847656 43.59375 -23.796875 C 43.59375 -26.742188 42.945312 -29.375 41.65625 -31.6875 C 40.363281 -34 38.582031 -35.800781 36.3125 -37.09375 C 34.039062 -38.382812 31.503906 -39.03125 28.703125 -39.03125 C 25.890625 -39.03125 23.347656 -38.382812 21.078125 -37.09375 C 18.816406 -35.800781 17.035156 -34 15.734375 -31.6875 C 14.441406 -29.375 13.796875 -26.742188 13.796875 -23.796875 C 13.796875 -20.847656 14.441406 -18.21875 15.734375 -15.90625 C 17.035156 -13.59375 18.816406 -11.789062 21.078125 -10.5 C 23.347656 -9.207031 25.890625 -8.5625 28.703125 -8.5625 Z M 28.703125 -8.5625 "/></g></g></g><g fill="#e928a0" fill-opacity="1"><g transform="translate(128.617512, 321.04993)"><g><path d="M 21.28125 0.8125 C 17.519531 0.8125 13.878906 0.300781 10.359375 -0.71875 C 6.847656 -1.738281 4.03125 -3.0625 1.90625 -4.6875 L 5.640625 -12.984375 C 7.679688 -11.492188 10.109375 -10.296875 12.921875 -9.390625 C 15.734375 -8.484375 18.546875 -8.03125 21.359375 -8.03125 C 24.484375 -8.03125 26.789062 -8.492188 28.28125 -9.421875 C 29.78125 -10.347656 30.53125 -11.582031 30.53125 -13.125 C 30.53125 -14.257812 30.085938 -15.195312 29.203125 -15.9375 C 28.316406 -16.6875 27.179688 -17.285156 25.796875 -17.734375 C 24.421875 -18.191406 22.554688 -18.695312 20.203125 -19.25 C 16.566406 -20.101562 13.59375 -20.960938 11.28125 -21.828125 C 8.96875 -22.691406 6.984375 -24.070312 5.328125 -25.96875 C 3.679688 -27.875 2.859375 -30.414062 2.859375 -33.59375 C 2.859375 -36.351562 3.601562 -38.851562 5.09375 -41.09375 C 6.59375 -43.34375 8.847656 -45.125 11.859375 -46.4375 C 14.878906 -47.757812 18.566406 -48.421875 22.921875 -48.421875 C 25.953125 -48.421875 28.914062 -48.054688 31.8125 -47.328125 C 34.71875 -46.597656 37.257812 -45.554688 39.4375 -44.203125 L 36.046875 -35.84375 C 31.640625 -38.332031 27.238281 -39.578125 22.84375 -39.578125 C 19.757812 -39.578125 17.476562 -39.078125 16 -38.078125 C 14.53125 -37.078125 13.796875 -35.765625 13.796875 -34.140625 C 13.796875 -32.503906 14.644531 -31.289062 16.34375 -30.5 C 18.050781 -29.707031 20.648438 -28.925781 24.140625 -28.15625 C 27.765625 -27.289062 30.734375 -26.425781 33.046875 -25.5625 C 35.359375 -24.707031 37.34375 -23.347656 39 -21.484375 C 40.65625 -19.628906 41.484375 -17.113281 41.484375 -13.9375 C 41.484375 -11.21875 40.722656 -8.734375 39.203125 -6.484375 C 37.679688 -4.242188 35.398438 -2.46875 32.359375 -1.15625 C 29.328125 0.15625 25.632812 0.8125 21.28125 0.8125 Z M 21.28125 0.8125 "/></g></g></g><g fill="#e928a0" fill-opacity="1"><g transform="translate(171.996545, 321.04993)"><g><path d="M 42.5 -8.84375 L 42.5 0 L 5.640625 0 L 5.640625 -47.59375 L 41.609375 -47.59375 L 41.609375 -38.765625 L 16.59375 -38.765625 L 16.59375 -28.421875 L 38.6875 -28.421875 L 38.6875 -19.859375 L 16.59375 -19.859375 L 16.59375 -8.84375 Z M 42.5 -8.84375 "/></g></g></g><g fill="#e928a0" fill-opacity="1"><g transform="translate(217.619329, 321.04993)"><g><path d="M 15.5 -38.625 L 0.265625 -38.625 L 0.265625 -47.59375 L 41.75 -47.59375 L 41.75 -38.625 L 26.515625 -38.625 L 26.515625 0 L 15.5 0 Z M 15.5 -38.625 "/></g></g></g><g fill="#e928a0" fill-opacity="1"><g transform="translate(259.638507, 321.04993)"><g><path d="M 15.5 -38.625 L 0.265625 -38.625 L 0.265625 -47.59375 L 41.75 -47.59375 L 41.75 -38.625 L 26.515625 -38.625 L 26.515625 0 L 15.5 0 Z M 15.5 -38.625 "/></g></g></g><g fill="#e928a0" fill-opacity="1"><g transform="translate(301.657685, 321.04993)"><g><path d="M 36.984375 -10.203125 L 14.890625 -10.203125 L 10.671875 0 L -0.609375 0 L 20.609375 -47.59375 L 31.484375 -47.59375 L 52.765625 0 L 41.203125 0 Z M 33.53125 -18.5625 L 25.96875 -36.78125 L 18.421875 -18.5625 Z M 33.53125 -18.5625 "/></g></g></g></svg>