<svg xmlns="http://www.w3.org/2000/svg" xmlns:xlink="http://www.w3.org/1999/xlink" width="500" zoomAndPan="magnify" viewBox="0 0 375 374.999991" height="500" preserveAspectRatio="xMidYMid meet" version="1.0"><defs><g/></defs><path fill="#e928a0" d="M 21.039062 165.734375 C 23.421875 163.289062 26.136719 160.816406 29.425781 160.152344 L 57.894531 154.59375 C 58.984375 154.289062 60.121094 154.175781 61.246094 154.261719 C 62.242188 154.46875 63.195312 154.832031 64.078125 155.332031 L 82.933594 164.855469 C 83.523438 165.109375 84.0625 165.46875 84.527344 165.914062 C 85.015625 166.519531 85.367188 167.226562 85.558594 167.980469 L 93.207031 191.144531 C 93.988281 193.515625 92.519531 196 91.105469 198.066406 L 80.421875 213.695312 C 79.9375 214.542969 79.265625 215.265625 78.457031 215.8125 C 77.746094 216.160156 76.976562 216.371094 76.1875 216.4375 C 64.707031 218.136719 53.183594 219.53125 41.613281 220.621094 C 40.175781 220.839844 38.707031 220.800781 37.28125 220.503906 C 36.074219 220.113281 34.933594 219.535156 33.902344 218.796875 C 21.890625 211.148438 9.21875 202.628906 3.636719 189.472656 C 3.113281 188.199219 3.890625 186.859375 4.65625 185.738281 C 9.539062 178.617188 15.019531 171.925781 21.039062 165.734375 Z M 79.289062 184.617188 C 77.996094 191.054688 79.269531 197.742188 82.832031 203.253906 C 87.21875 199.964844 87.828125 193.515625 86.527344 188.1875 C 85.226562 182.855469 82.449219 177.988281 81.429688 172.59375 C 80.855469 169.714844 77.960938 167.992188 75.347656 166.640625 L 62.839844 160.164062 C 62.277344 159.820312 61.648438 159.601562 60.992188 159.527344 C 59.589844 159.527344 58.441406 160.648438 57.574219 161.707031 C 53.996094 165.855469 49.984375 169.605469 45.605469 172.902344 C 44.816406 173.488281 43.449219 173.945312 43.054688 173.039062 L 55.511719 160.011719 C 55.710938 159.855469 55.832031 159.617188 55.84375 159.363281 C 55.765625 158.929688 55.167969 158.890625 54.746094 158.953125 L 44.546875 160.46875 C 40.023438 160.941406 35.574219 161.96875 31.300781 163.53125 C 21.753906 167.507812 15.300781 176.394531 9.703125 185.089844 L 30.371094 181.035156 C 32.921875 180.523438 35.648438 179.914062 37.316406 177.9375 C 37.941406 177.195312 38.464844 176.242188 39.410156 175.984375 C 40.351562 175.730469 41.449219 177.058594 40.683594 177.605469 C 40.226562 178.03125 39.964844 178.625 39.964844 179.25 C 39.964844 179.875 40.226562 180.46875 40.683594 180.894531 C 41.660156 181.6875 42.847656 182.179688 44.101562 182.308594 L 72.300781 187.96875 C 74.671875 188.453125 76.328125 185.609375 76.75 183.226562 C 77.171875 180.84375 77.515625 177.949219 79.695312 176.851562 C 80.765625 179.25 79.847656 181.953125 79.324219 184.566406 Z M 52.132812 198.09375 L 68.375 190.441406 C 57.25 189.273438 46.25 187.140625 35.496094 184.070312 C 33.207031 183.628906 30.847656 183.78125 28.636719 184.515625 L 12.816406 188.339844 C 12.207031 188.402344 11.648438 188.710938 11.273438 189.195312 C 11.078125 189.683594 11.078125 190.230469 11.273438 190.722656 C 13.019531 197.609375 19.125 202.324219 24.835938 206.53125 L 37.34375 215.722656 C 37.570312 215.929688 37.855469 216.054688 38.160156 216.082031 C 38.65625 216.082031 38.976562 215.570312 39.191406 215.125 C 41.386719 210.574219 42.390625 205.21875 46.089844 201.777344 C 47.90625 200.25 49.949219 199.011719 52.144531 198.105469 Z M 52.910156 201.152344 C 51.207031 202.003906 49.632812 203.089844 48.230469 204.378906 C 45.488281 207.132812 44.546875 211.132812 43.707031 214.921875 C 43.566406 215.546875 43.515625 216.347656 44.0625 216.65625 C 44.339844 216.773438 44.648438 216.800781 44.941406 216.742188 L 67.074219 214.539062 C 71.636719 214.09375 76.710938 213.363281 79.554688 209.769531 C 80.753906 208.253906 81.378906 205.945312 80.269531 204.414062 C 78.234375 201.535156 76.675781 198.34375 75.652344 194.96875 C 75.09375 193.121094 74.199219 190.800781 72.273438 190.773438 C 71.515625 190.832031 70.789062 191.085938 70.160156 191.515625 Z M 52.910156 201.152344 " fill-opacity="1" fill-rule="evenodd"/><g fill="#e928a0" fill-opacity="1"><g transform="translate(98.941595, 206.249986)"><g><path d="M 29.09375 0 L 21.671875 -10.71875 L 13.46875 -10.71875 L 13.46875 0 L 4.5625 0 L 4.5625 -38.5 L 21.234375 -38.5 C 24.640625 -38.5 27.597656 -37.929688 30.109375 -36.796875 C 32.617188 -35.660156 34.550781 -34.046875 35.90625 -31.953125 C 37.269531 -29.859375 37.953125 -27.382812 37.953125 -24.53125 C 37.953125 -21.664062 37.265625 -19.195312 35.890625 -17.125 C 34.515625 -15.0625 32.5625 -13.476562 30.03125 -12.375 L 38.671875 0 Z M 28.9375 -24.53125 C 28.9375 -26.695312 28.238281 -28.351562 26.84375 -29.5 C 25.445312 -30.65625 23.410156 -31.234375 20.734375 -31.234375 L 13.46875 -31.234375 L 13.46875 -17.8125 L 20.734375 -17.8125 C 23.410156 -17.8125 25.445312 -18.398438 26.84375 -19.578125 C 28.238281 -20.753906 28.9375 -22.40625 28.9375 -24.53125 Z M 28.9375 -24.53125 "/></g></g></g><g fill="#e928a0" fill-opacity="1"><g transform="translate(139.363658, 206.249986)"><g><path d="M 23.203125 0.65625 C 19.210938 0.65625 15.613281 -0.203125 12.40625 -1.921875 C 9.195312 -3.648438 6.679688 -6.023438 4.859375 -9.046875 C 3.046875 -12.066406 2.140625 -15.46875 2.140625 -19.25 C 2.140625 -23.03125 3.046875 -26.429688 4.859375 -29.453125 C 6.679688 -32.472656 9.195312 -34.84375 12.40625 -36.5625 C 15.613281 -38.289062 19.210938 -39.15625 23.203125 -39.15625 C 27.203125 -39.15625 30.796875 -38.289062 33.984375 -36.5625 C 37.179688 -34.84375 39.695312 -32.472656 41.53125 -29.453125 C 43.363281 -26.429688 44.28125 -23.03125 44.28125 -19.25 C 44.28125 -15.46875 43.363281 -12.066406 41.53125 -9.046875 C 39.695312 -6.023438 37.179688 -3.648438 33.984375 -1.921875 C 30.796875 -0.203125 27.203125 0.65625 23.203125 0.65625 Z M 23.203125 -6.9375 C 25.484375 -6.9375 27.539062 -7.457031 29.375 -8.5 C 31.207031 -9.539062 32.644531 -10.992188 33.6875 -12.859375 C 34.726562 -14.734375 35.25 -16.863281 35.25 -19.25 C 35.25 -21.632812 34.726562 -23.757812 33.6875 -25.625 C 32.644531 -27.5 31.207031 -28.957031 29.375 -30 C 27.539062 -31.039062 25.484375 -31.5625 23.203125 -31.5625 C 20.929688 -31.5625 18.878906 -31.039062 17.046875 -30 C 15.210938 -28.957031 13.773438 -27.5 12.734375 -25.625 C 11.691406 -23.757812 11.171875 -21.632812 11.171875 -19.25 C 11.171875 -16.863281 11.691406 -14.734375 12.734375 -12.859375 C 13.773438 -10.992188 15.210938 -9.539062 17.046875 -8.5 C 18.878906 -7.457031 20.929688 -6.9375 23.203125 -6.9375 Z M 23.203125 -6.9375 "/></g></g></g><g fill="#e928a0" fill-opacity="1"><g transform="translate(185.780296, 206.249986)"><g><path d="M 17.21875 0.65625 C 14.175781 0.65625 11.234375 0.242188 8.390625 -0.578125 C 5.546875 -1.398438 3.265625 -2.472656 1.546875 -3.796875 L 4.5625 -10.5 C 6.21875 -9.289062 8.179688 -8.316406 10.453125 -7.578125 C 12.722656 -6.847656 14.992188 -6.484375 17.265625 -6.484375 C 19.796875 -6.484375 21.664062 -6.859375 22.875 -7.609375 C 24.082031 -8.367188 24.6875 -9.367188 24.6875 -10.609375 C 24.6875 -11.523438 24.328125 -12.285156 23.609375 -12.890625 C 22.898438 -13.503906 21.984375 -13.992188 20.859375 -14.359375 C 19.742188 -14.722656 18.234375 -15.125 16.328125 -15.5625 C 13.398438 -16.257812 11 -16.957031 9.125 -17.65625 C 7.257812 -18.351562 5.65625 -19.46875 4.3125 -21 C 2.976562 -22.539062 2.3125 -24.597656 2.3125 -27.171875 C 2.3125 -29.410156 2.914062 -31.4375 4.125 -33.25 C 5.332031 -35.0625 7.15625 -36.5 9.59375 -37.5625 C 12.03125 -38.625 15.007812 -39.15625 18.53125 -39.15625 C 20.988281 -39.15625 23.390625 -38.863281 25.734375 -38.28125 C 28.085938 -37.695312 30.144531 -36.851562 31.90625 -35.75 L 29.15625 -28.984375 C 25.59375 -31.003906 22.035156 -32.015625 18.484375 -32.015625 C 15.984375 -32.015625 14.140625 -31.609375 12.953125 -30.796875 C 11.765625 -29.992188 11.171875 -28.929688 11.171875 -27.609375 C 11.171875 -26.285156 11.859375 -25.300781 13.234375 -24.65625 C 14.609375 -24.019531 16.707031 -23.390625 19.53125 -22.765625 C 22.457031 -22.066406 24.851562 -21.367188 26.71875 -20.671875 C 28.59375 -19.984375 30.195312 -18.882812 31.53125 -17.375 C 32.875 -15.875 33.546875 -13.84375 33.546875 -11.28125 C 33.546875 -9.070312 32.929688 -7.0625 31.703125 -5.25 C 30.472656 -3.4375 28.628906 -2 26.171875 -0.9375 C 23.722656 0.125 20.738281 0.65625 17.21875 0.65625 Z M 17.21875 0.65625 "/></g></g></g><g fill="#e928a0" fill-opacity="1"><g transform="translate(220.867753, 206.249986)"><g><path d="M 34.375 -7.15625 L 34.375 0 L 4.5625 0 L 4.5625 -38.5 L 33.65625 -38.5 L 33.65625 -31.34375 L 13.421875 -31.34375 L 13.421875 -22.984375 L 31.296875 -22.984375 L 31.296875 -16.0625 L 13.421875 -16.0625 L 13.421875 -7.15625 Z M 34.375 -7.15625 "/></g></g></g><g fill="#e928a0" fill-opacity="1"><g transform="translate(257.770071, 206.249986)"><g><path d="M 12.546875 -31.234375 L 0.21875 -31.234375 L 0.21875 -38.5 L 33.765625 -38.5 L 33.765625 -31.234375 L 21.453125 -31.234375 L 21.453125 0 L 12.546875 0 Z M 12.546875 -31.234375 "/></g></g></g><g fill="#e928a0" fill-opacity="1"><g transform="translate(291.757591, 206.249986)"><g><path d="M 12.546875 -31.234375 L 0.21875 -31.234375 L 0.21875 -38.5 L 33.765625 -38.5 L 33.765625 -31.234375 L 21.453125 -31.234375 L 21.453125 0 L 12.546875 0 Z M 12.546875 -31.234375 "/></g></g></g><g fill="#e928a0" fill-opacity="1"><g transform="translate(325.745122, 206.249986)"><g><path d="M 29.921875 -8.25 L 12.046875 -8.25 L 8.640625 0 L -0.5 0 L 16.671875 -38.5 L 25.46875 -38.5 L 42.6875 0 L 33.328125 0 Z M 27.109375 -15.015625 L 21.015625 -29.75 L 14.90625 -15.015625 Z M 27.109375 -15.015625 "/></g></g></g></svg>