<svg width="76" height="76" xmlns="http://www.w3.org/2000/svg" version="1.1">
 <title>RosettaCentralizedIcon</title>

 <desc>Created with Sketch.</desc>
 <g>
  <title>Layer 1</title>
  <g stroke="null" fill="none" fill-rule="evenodd" id="svg_1">
   <g stroke="null" fill="#e928a0" id="svg_2">
    <path stroke="null" d="m14.87367,19.4198c2.01165,-2.08997 4.30298,-4.20172 7.07841,-4.76775l24.02141,-4.74598c0.91974,-0.25949 1.87706,-0.35525 2.82921,-0.28302c0.83822,0.1772 1.64397,0.4857 2.38816,0.91436l15.91028,8.1313c0.49775,0.21787 0.9531,0.52382 1.34468,0.90348c0.4123,0.51763 0.7095,1.11908 0.87135,1.76342l6.45448,19.77855c0.65621,2.02466 -0.5809,4.14729 -1.77498,5.91071l-9.01475,13.34535c-0.41024,0.72121 -0.97663,1.339 -1.65665,1.80696c-0.60002,0.29653 -1.24936,0.4774 -1.91483,0.53338c-9.68889,1.45137 -19.41363,2.6415 -29.17423,3.57037c-1.21527,0.18718 -2.45376,0.15402 -3.65754,-0.09797c-1.01853,-0.33543 -1.98002,-0.8274 -2.85073,-1.45863c-10.13353,-6.53117 -20.82644,-13.80253 -25.53821,-25.03614c-0.44106,-1.08853 0.21515,-2.23148 0.8606,-3.18939c4.11947,-6.08037 8.74402,-11.79408 13.82334,-17.079l0,0zm49.15084,16.1211c-1.08849,5.49642 -0.01562,11.20571 2.99057,15.91428c3.70057,-2.8084 4.21692,-8.31635 3.11966,-12.8664c-1.09726,-4.55005 -3.44239,-8.70822 -4.30298,-13.31269c-0.48409,-2.46007 -2.92603,-3.92959 -5.13131,-5.08342l-10.55307,-5.52972c-0.47483,-0.29363 -1.00706,-0.47934 -1.55983,-0.54426c-1.18332,0 -2.15149,0.9579 -2.883,1.86138c-3.02032,3.54145 -6.4067,6.74548 -10.10126,9.55727c-0.66696,0.50072 -1.81801,0.89259 -2.15149,0.11974l10.51004,-11.12475c0.16942,-0.13439 0.27173,-0.33748 0.27969,-0.55515c-0.06454,-0.3701 -0.57015,-0.40276 -0.92514,-0.34833l-8.60597,1.29535c-3.81797,0.40051 -7.57222,1.27802 -11.177,2.61247c-8.05734,3.39621 -13.50061,10.98325 -18.22314,18.407l17.43784,-3.46152c2.15149,-0.43541 4.45359,-0.9579 5.86282,-2.64512c0.52712,-0.63135 0.96817,-1.44774 1.76422,-1.66545c0.79605,-0.21771 1.72119,0.91436 1.07575,1.38243c-0.386,0.36251 -0.60533,0.87131 -0.60533,1.4042c0,0.53289 0.21933,1.04169 0.60533,1.4042c0.82484,0.67718 1.82652,1.09699 2.883,1.20827l23.7955,4.83306c2.00089,0.41364 3.39936,-2.01378 3.75435,-4.04932c0.355,-2.03555 0.64545,-4.50651 2.48497,-5.44264c0.90363,2.04643 0.12909,4.35411 -0.31197,6.58559l-0.03227,0.04354zm-22.91339,11.50574l13.705,-6.53117c-9.38625,-0.99712 -18.66903,-2.8182 -27.74349,-5.44264c-1.92968,-0.37494 -3.92211,-0.24379 -5.78751,0.38098l-13.35001,3.26558c-0.51407,0.05317 -0.98431,0.31665 -1.30165,0.72931c-0.16308,0.41978 -0.16308,0.88645 0,1.30623c1.47377,5.87805 6.6266,9.9056 11.44594,13.49774l10.55307,7.84829c0.19067,0.17459 0.43235,0.28158 0.68848,0.30479c0.41954,0 0.68848,-0.43541 0.87135,-0.8164c1.85028,-3.88604 2.70012,-8.45786 5.81979,-11.39689c1.53391,-1.30452 3.25741,-2.36193 5.10979,-3.13496l-0.01076,-0.01089zm0.65621,2.61247c-1.43554,0.7288 -2.7642,1.65563 -3.94799,2.75398c-2.31285,2.35122 -3.10891,5.7692 -3.8189,9.00212c-0.11833,0.53338 -0.16136,1.21915 0.30121,1.4804c0.2343,0.10006 0.49289,0.12661 0.74226,0.0762l18.67495,-1.88315c3.85117,-0.38098 8.13264,-1.00145 10.53155,-4.07109c1.0112,-1.29535 1.53832,-3.26558 0.60242,-4.57182c-1.71725,-2.45989 -3.03212,-5.18336 -3.8942,-8.06599c-0.47333,-1.57837 -1.22635,-3.55949 -2.85073,-3.58126c-0.63966,0.04836 -1.2555,0.26609 -1.78574,0.63135l-14.55484,8.22927z" id="svg_3"/>
   </g>
  </g>
 </g>
</svg>