<svg width="76" height="76" xmlns="http://www.w3.org/2000/svg" version="1.1">
 <title>RosettaCentralizedIcon</title>

 <desc>Created with Sketch.</desc>
 <g>
  <title>Layer 1</title>
  <g stroke="null" id="svg_1" fill-rule="evenodd" fill="none">
   <g stroke="null" id="svg_2" fill="#e928a0">
    <path stroke="null" id="svg_3" d="m16.50206,20.93089c1.87,-1.92 4,-3.86 6.58,-4.38l22.33,-4.36c0.85498,-0.23839 1.74489,-0.32636 2.63,-0.26c0.7792,0.16279 1.52821,0.4462 2.22,0.84l14.79,7.47c0.4627,0.20015 0.88599,0.48122 1.25,0.83c0.38327,0.47553 0.65954,1.02807 0.81,1.62l6,18.17c0.61,1.86 -0.54,3.81 -1.65,5.43l-8.38,12.26c-0.38135,0.66256 -0.90786,1.2301 -1.54,1.66c-0.55777,0.27241 -1.16139,0.43857 -1.78,0.49c-9.00667,1.33333 -18.04667,2.42667 -27.12,3.28c-1.1297,0.17196 -2.28098,0.14149 -3.4,-0.09c-0.94681,-0.30815 -1.8406,-0.76011 -2.65,-1.34c-9.42,-6 -19.36,-12.68 -23.74,-23c-0.41,-1 0.2,-2.05 0.8,-2.93c3.82941,-5.58587 8.12833,-10.83489 12.85,-15.69l0,0zm45.69,14.81c-1.01185,5.04941 -0.01452,10.29437 2.78,14.62c3.44,-2.58 3.92,-7.64 2.9,-11.82c-1.02,-4.18 -3.2,-8 -4,-12.23c-0.45,-2.26 -2.72,-3.61 -4.77,-4.67l-9.81,-5.08c-0.4414,-0.26975 -0.93615,-0.44036 -1.45,-0.5c-1.1,0 -2,0.88 -2.68,1.71c-2.80765,3.25343 -5.95559,6.19688 -9.39,8.78c-0.62,0.46 -1.69,0.82 -2,0.11l9.77,-10.22c0.15749,-0.12346 0.2526,-0.31003 0.26,-0.51c-0.06,-0.34 -0.53,-0.37 -0.86,-0.32l-8,1.19c-3.54914,0.36794 -7.03904,1.17408 -10.39,2.4c-7.49,3.12 -12.55,10.09 -16.94,16.91l16.21,-3.18c2,-0.4 4.14,-0.88 5.45,-2.43c0.49,-0.58 0.9,-1.33 1.64,-1.53c0.74,-0.2 1.6,0.84 1,1.27c-0.35882,0.33303 -0.56271,0.80045 -0.56271,1.29c0,0.48955 0.20389,0.95697 0.56271,1.29c0.76676,0.62211 1.69791,1.00777 2.68,1.11l22.12,4.44c1.86,0.38 3.16,-1.85 3.49,-3.72c0.33,-1.87 0.6,-4.14 2.31,-5c0.84,1.88 0.12,4 -0.29,6.05l-0.03,0.04zm-21.3,10.57l12.74,-6c-8.72534,-0.91603 -17.3545,-2.589 -25.79,-5c-1.79381,-0.34445 -3.64594,-0.22396 -5.38,0.35l-12.41,3c-0.47787,0.04885 -0.915,0.2909 -1.21,0.67c-0.1516,0.38564 -0.1516,0.81436 0,1.2c1.37,5.4 6.16,9.1 10.64,12.4l9.81,7.21c0.17724,0.16039 0.40191,0.25868 0.64,0.28c0.39,0 0.64,-0.4 0.81,-0.75c1.72,-3.57 2.51,-7.77 5.41,-10.47c1.4259,-1.19843 3.02805,-2.16984 4.75,-2.88l-0.01,-0.01zm0.61,2.4c-1.33446,0.66953 -2.56957,1.52098 -3.67,2.53c-2.15,2.16 -2.89,5.3 -3.55,8.27c-0.11,0.49 -0.15,1.12 0.28,1.36c0.2178,0.09192 0.45818,0.11631 0.69,0.07l17.36,-1.73c3.58,-0.35 7.56,-0.92 9.79,-3.74c0.94,-1.19 1.43,-3 0.56,-4.2c-1.59633,-2.25983 -2.81862,-4.76181 -3.62,-7.41c-0.44,-1.45 -1.14,-3.27 -2.65,-3.29c-0.59462,0.04443 -1.1671,0.24445 -1.66,0.58l-13.53,7.56z"/>
   </g>
  </g>
 </g>
</svg>